<svg
                    width="15"
                    height="16"
                    viewBox="0 0 15 16"
                    fill="none"
                    xmlns="http://www.w3.org/2000/svg"
                  >
                    <path
                      d="M7.57389 0.574036C3.47296 0.574036 0.147797 3.9854 0.147797 8.18909C0.147797 11.554 2.27617 14.4051 5.22671 15.413C5.2681 15.4219 5.31034 15.4264 5.35269 15.4262C5.62786 15.4262 5.73394 15.224 5.73394 15.0483C5.73394 14.8659 5.72731 14.3886 5.724 13.752C5.47835 13.8096 5.22705 13.8396 4.97476 13.8415C3.5459 13.8415 3.22101 12.7309 3.22101 12.7309C2.88285 11.8524 2.39552 11.617 2.39552 11.617C1.74905 11.1628 2.3922 11.1496 2.44193 11.1496H2.44524C3.19117 11.2159 3.58237 11.9386 3.58237 11.9386C3.95367 12.5884 4.45095 12.7707 4.89519 12.7707C5.18893 12.7649 5.47813 12.6971 5.74389 12.5718C5.81019 12.0812 6.00248 11.7463 6.21465 11.554C4.56699 11.3618 2.83313 10.7087 2.83313 7.79127C2.83313 6.95915 3.12155 6.27953 3.59563 5.74909C3.51938 5.55681 3.2641 4.78105 3.66856 3.73344C3.72281 3.72046 3.77857 3.71488 3.83432 3.71686C4.10285 3.71686 4.70954 3.81964 5.71074 4.51583C6.92727 4.17546 8.21388 4.17546 9.43041 4.51583C10.4316 3.81964 11.0383 3.71686 11.3068 3.71686C11.3626 3.71488 11.4183 3.72046 11.4726 3.73344C11.877 4.78105 11.6218 5.55681 11.5455 5.74909C12.0196 6.28284 12.308 6.96246 12.308 7.79127C12.308 10.7153 10.5708 11.3584 8.91655 11.5474C9.18177 11.7828 9.42047 12.2469 9.42047 12.9564C9.42047 13.9742 9.41052 14.7963 9.41052 15.045C9.41052 15.224 9.51329 15.4262 9.78846 15.4262C9.833 15.4264 9.87744 15.422 9.92107 15.413C12.8749 14.4051 15 11.5507 15 8.18909C15 3.9854 11.6748 0.574036 7.57389 0.574036Z"
                      fill="white"
                    />
                  </svg>