<svg
                    width="24"
                    height="24"
                    viewBox="0 0 24 24"
                    fill="none"
                    xmlns="http://www.w3.org/2000/svg"
                  >
                    <path
                      d="M9 9.00039V16.9004C9 18.4004 7.4 19.4004 6 18.6004L3.5 17.2004C3.2 17.1004 3 16.8004 3 16.4004V7.60039C3 7.20039 3.2 6.90039 3.5 6.70039L11.5 2.30039C11.8 2.10039 12.2 2.10039 12.5 2.30039L20.5 6.70039C20.8 6.90039 21 7.20039 21 7.60039V16.4004C21 16.8004 20.8 17.1004 20.5 17.3004L12.5 21.7004C12.2 21.9004 11.8 21.9004 11.5 21.7004L10 21.0004"
                      stroke="white"
                      stroke-width="1.5"
                      stroke-miterlimit="10"
                      stroke-linecap="round"
                      stroke-linejoin="round"
                    />
                    <path
                      d="M16.9998 10.8C16.9998 9.8 16.1998 9 15.2998 9H13.4998C12.4998 9 11.7998 9.8 11.7998 10.7C11.7998 11.7 12.5998 12.4 13.4998 12.4H15.2998C16.2998 12.4 16.9998 13.2 16.9998 14.1C16.9998 15.1 16.1998 15.8 15.2998 15.8H13.4998C12.4998 15.8 11.7998 15 11.7998 14.1"
                      stroke="white"
                      stroke-width="1.5"
                      stroke-miterlimit="10"
                      stroke-linecap="round"
                      stroke-linejoin="round"
                    />
                  </svg>